

<svg width="0" height="0" class="hidden">
<!-- SVG Sprite  heart-->
  <symbol version="1.1" id="heart" xmlns="http://www.w3.org/2000/svg" xmlns:xlink="http://www.w3.org/1999/xlink" x="0px" y="0px" xml:space="preserve" viewBox="0 0 90.6 95" fill="#E7BC0E">
    <title>heartshine</title>
    <path d="M45.3,78.3l-0.2,0.2L20.7,54.1c-7.4-7.4-7.4-19.3,0-26.7c6.6-6.6,17.1-7.4,24.6-1.8c8.4-6.2,20.2-4.4,26.4,4
	c5.6,7.5,4.8,18-1.8,24.6L45.5,78.5L45.3,78.3z M45.5,69.2l19.8-19.7c4.8-4.8,4.8-12.6,0-17.5s-12.6-4.8-17.5,0l-2.5,2.5L42.8,32
	c-4.8-4.8-12.7-4.8-17.5,0s-4.8,12.7,0,17.5l19.8,19.7l0.2-0.2L45.5,69.2z"></path>
    <path d="M25,31.7c5-5,13.1-5,18.1,0c0,0,0,0,0,0l2.2,2.2l2.2-2.2c5-5,13.1-5,18.2,0s5,13.1,0,18.2L45.5,69.9l-0.2-0.2
	l-0.2,0.2L25,49.8C20,44.8,20,36.7,25,31.7z M45.1,77.8l0.2-0.2l0.2,0.2l24-24c7.2-7.1,7.3-18.8,0.2-26c-6.5-6.6-17-7.3-24.4-1.6
	c-8.1-6.2-19.6-4.7-25.8,3.4c-5.6,7.3-4.9,17.6,1.5,24.2L45.1,77.8z"></path>
    <path d="M47.3,10.6c-0.7,0-1.3-0.1-2-0.1s-1.3,0-2,0.1h-0.5V2.5c0-1.4,1.1-2.5,2.5-2.5s2.5,1.1,2.5,2.5v8.1L47.3,10.6z"></path>
    <path d="M47.3,2.5c0-1.1-0.9-2-2-2s-2,0.9-2,2v7.6c0.7,0,1.3-0.1,2-0.1s1.3,0,2,0.1V2.5z"></path>
    <path d="M45.3,95c-1.4,0-2.5-1.1-2.5-2.5v-8.1h0.5c0.7,0,1.3,0,2,0s1.3,0,2,0h0.5v8.1C47.9,93.9,46.7,95,45.3,95
	C45.3,95,45.3,95,45.3,95z"></path>
    <path d="M47.3,92.5v-7.6c-0.7,0-1.3,0-2,0s-1.3,0-2,0v7.6c0,1.1,0.9,2,2,2S47.3,93.6,47.3,92.5z"></path>
    <path d="M16.8,12.6c-0.7-1.2-0.3-2.7,0.9-3.4c1-0.6,2.3-0.4,3.1,0.5l4.8,6.6l-0.4,0.3C24,17.2,23,18,22,18.8l-0.4,0.3
	L16.8,12.6z"></path>
    <path d="M17.7,9.5c-0.9,0.6-1.1,1.9-0.5,2.8l4.5,6.1c1-0.8,2.1-1.6,3.2-2.4l-4.5-6.1C19.8,9,18.6,8.8,17.7,9.5
	C17.7,9.5,17.7,9.5,17.7,9.5L17.7,9.5z"></path>
    <path d="M71.8,86.4c-0.8,0-1.5-0.4-2-1L65,78.8l0.4-0.3c1.1-0.7,2.2-1.5,3.2-2.3l0.4-0.3l4.8,6.6
	c0.8,1.1,0.6,2.7-0.6,3.5C72.8,86.3,72.3,86.4,71.8,86.4z"></path>
    <path d="M68.9,76.6c-1,0.8-2.1,1.6-3.2,2.3l4.5,6.2c0.6,0.9,1.9,1.1,2.8,0.4c0,0,0,0,0,0c0.9-0.6,1.1-1.9,0.4-2.8
	c0,0,0,0,0,0L68.9,76.6z"></path>
    <path d="M1.7,36c-0.6-0.2-1.1-0.7-1.4-1.2c-0.3-0.6-0.4-1.3-0.2-1.9c0.3-1,1.3-1.7,2.3-1.7c0.3,0,0.5,0,0.8,0.1l7.7,2.5
	l-0.2,0.5c-0.5,1.2-0.9,2.5-1.2,3.8l-0.1,0.5L1.7,36z"></path>
    <path d="M3.1,31.7c-1.1-0.3-2.2,0.2-2.5,1.3c-0.3,1.1,0.2,2.2,1.3,2.5l7.2,2.3c0.4-1.3,0.8-2.6,1.2-3.8L3.1,31.7z"></path>
    <path d="M88.1,63.9c-0.3,0-0.5,0-0.8-0.1l-7.7-2.5l0.2-0.5c0.5-1.2,0.9-2.5,1.2-3.8l0.1-0.5l7.7,2.5
	c1.3,0.4,2,1.8,1.6,3.2C90.1,63.2,89.2,63.9,88.1,63.9z"></path>
    <path d="M87.5,63.3c0.2,0.1,0.4,0.1,0.6,0.1c1.1,0,2-0.9,2-2c0-0.9-0.6-1.7-1.4-1.9l-7.2-2.3c-0.3,1.3-0.8,2.6-1.2,3.8
	L87.5,63.3z"></path>
    <path d="M2.5,63.9c-1.4,0-2.5-1.1-2.5-2.5c0-1.1,0.7-2.1,1.7-2.4l7.7-2.5L9.6,57c0.3,1.3,0.8,2.5,1.2,3.8l0.2,0.5
	l-7.7,2.5C3,63.9,2.8,63.9,2.5,63.9z"></path>
    <path d="M1.9,59.5c-1.1,0.3-1.6,1.4-1.3,2.5c0.3,0.8,1,1.4,1.9,1.4c0.2,0,0.4,0,0.6-0.1l7.2-2.4
	c-0.5-1.2-0.9-2.5-1.2-3.8L1.9,59.5z"></path>
    <path d="M81,38c-0.3-1.3-0.8-2.5-1.2-3.8l-0.2-0.5l7.7-2.5c1.3-0.4,2.7,0.3,3.1,1.6c0.4,1.3-0.3,2.7-1.6,3.2l-7.7,2.5
	L81,38z"></path>
    <path d="M88.7,35.5c1.1-0.3,1.6-1.5,1.3-2.5c-0.3-1.1-1.5-1.6-2.5-1.3l0,0L80.3,34c0.5,1.2,0.9,2.5,1.2,3.8L88.7,35.5z"></path>
    <path d="M18.8,86.4c-0.5,0-1-0.2-1.5-0.5c-0.5-0.4-0.9-1-1-1.6c-0.1-0.7,0.1-1.3,0.5-1.9l4.8-6.6l0.4,0.3
	c1,0.8,2.1,1.6,3.2,2.3l0.4,0.3l-4.8,6.6C20.4,86,19.7,86.4,18.8,86.4z"></path>
    <path d="M17.7,85.5c0.3,0.2,0.7,0.4,1.2,0.4c0.6,0,1.2-0.3,1.6-0.8l4.5-6.2c-1.1-0.7-2.2-1.5-3.2-2.3l-4.5,6.2
	C16.6,83.6,16.8,84.9,17.7,85.5z"></path>
    <path d="M68.6,18.8c-1-0.8-2.1-1.6-3.2-2.3L65,16.2l4.8-6.6c0.5-0.6,1.2-1,2-1c0.5,0,1,0.2,1.5,0.5
	c1.1,0.8,1.4,2.4,0.6,3.5L69,19.1L68.6,18.8z"></path>
    <path d="M70.1,9.9l-4.5,6.1c1.1,0.7,2.2,1.5,3.2,2.4l4.5-6.1c0.6-0.9,0.4-2.1-0.4-2.8S70.8,9,70.1,9.9z"></path>
  </symbol>

  <!-- SVG Sprite  health-->
   <symbol id="health" xmlns="http://www.w3.org/2000/svg" viewBox="0 0 151.28 151.28" fill="#E7BC0E">
    <defs></defs>
    <title>health</title>
    <path d="M75.64,3.5A72.14,72.14,0,1,1,3.5,75.64h0A72.22,72.22,0,0,1,75.64,3.5m0-3.5a75.64,75.64,0,1,0,75.64,75.64h0A75.66,75.66,0,0,0,75.64,0Z" transform="translate(0)"></path>
    <g id="health">
      <path d="M109.06,44.53,91.77,28.89a1.67,1.67,0,0,0-1.11-.43H47.56a5.91,5.91,0,0,0-5.89,5.9v86.79a1.65,1.65,0,0,0,1.65,1.67,1.61,1.61,0,0,0,1.07-.38l3.82-3.13,2.25,2.87a1.66,1.66,0,0,0,1.12.63,1.72,1.72,0,0,0,1.23-.37l4.47-3.64,2.28,3.3a1.65,1.65,0,0,0,2.26.45l5.32-3.4,2.47,3a1.66,1.66,0,0,0,2.19.35l5.06-3.26L78.41,122a1.65,1.65,0,0,0,2.26.62,1,1,0,0,0,.24-.16l4-3.29,3.44,3.22a1.66,1.66,0,0,0,2,.21l5.72-3.38,1.8,2.84a1.66,1.66,0,0,0,2.29.52,1.76,1.76,0,0,0,.3-.24l3-3.06,3.34,3.11a1.66,1.66,0,0,0,2.35-.07,1.68,1.68,0,0,0,.45-1.15V45.76A1.65,1.65,0,0,0,109.06,44.53ZM92.32,33.87l11.77,10.65H92.32Zm14,83.47-1.73-1.61a1.67,1.67,0,0,0-2.31,0l-2.7,2.72L98,116.06a1.66,1.66,0,0,0-2.25-.54l-6,3.57-3.59-3.36a1.66,1.66,0,0,0-2.19-.07l-3.62,3-1.45-2.51a1.67,1.67,0,0,0-1.05-.79,1.63,1.63,0,0,0-1.29.22L71.25,119l-2.46-3a1.66,1.66,0,0,0-2.19-.35L61.38,119,59,115.43a1.67,1.67,0,0,0-1.13-.7,1.69,1.69,0,0,0-1.28.36L52,118.8l-2.25-2.88a1.7,1.7,0,0,0-1.13-.63,1.68,1.68,0,0,0-1.24.37l-2.42,2V34.36a2.58,2.58,0,0,1,2.57-2.57H89V46.18a1.66,1.66,0,0,0,1.66,1.66h15.63Z" transform="translate(0)"></path>
      <rect x="54.68" y="66.2" width="41.92" height="3.32"></rect>
      <rect x="54.68" y="73.86" width="41.92" height="3.32"></rect>
      <rect x="54.68" y="81.52" width="41.92" height="3.32"></rect>
      <rect x="86.8" y="89.27" width="9.8" height="3.32"></rect>
      <path d="M71.11,62.25h8.16v-7h7V47h-7V40H71.11v7h-7v8.2h7Zm-4.39-9.7V49.7h7V42.65h2.85V49.7h7v2.85h-7v7h-2.8v-7Z" transform="translate(0)"></path>
      <path d="M75.83,97.45c-2-.77-2.66-1.18-2.69-1.93,0-.58.09-1,.32-1.12.82-.58,3.25-.11,4.68.46a1.66,1.66,0,1,0,1.23-3.09A14.57,14.57,0,0,0,76.86,91V89.91a1.67,1.67,0,0,0-3.33,0v1a4.8,4.8,0,0,0-2,.77,4.35,4.35,0,0,0-1.73,4c.11,3.07,2.82,4.13,4.8,4.9,2.65,1,2.83,1.38,2.53,2.53a1.75,1.75,0,0,1-.93,1.33,2.63,2.63,0,0,1-1,.17h-.06a7.8,7.8,0,0,1-2.91-.8,1.69,1.69,0,0,0-1.54,3,11.69,11.69,0,0,0,2.82,1v1.09a1.67,1.67,0,0,0,3.33.26,1.13,1.13,0,0,0,0-.26v-1.11c.24-.07.47-.15.7-.24a5,5,0,0,0,2.8-3.52C81.48,99.65,77.94,98.27,75.83,97.45Z" transform="translate(0)"></path>
      <rect x="54.91" y="89.27" width="4.9" height="3.32"></rect>
      <rect x="61.56" y="89.27" width="4.9" height="3.32"></rect>
    </g>
  </symbol>
  <!--pay -->
    <symbol id="pay" xmlns="http://www.w3.org/2000/svg" viewBox="0 0 151.28 151.28" fill="#E7BC0E">
    <defs></defs>
    <title>stat-pay-color</title>
    <path d="M75.64,0a75.64,75.64,0,1,0,75.64,75.64A75.65,75.65,0,0,0,75.64,0ZM68.8,43.46l.92,1.46C71.49,47.75,80.39,62.18,81.57,68l.25,1.2-1.19-.3a14.43,14.43,0,0,1-3.85-1.76,32.54,32.54,0,0,1-6.65-6.4A35.75,35.75,0,0,1,67.52,57a3.07,3.07,0,0,0-.23-.5c-.75-1.65-1.34-3-2.39-3.36l-.65-.29C50,46.4,45.91,44.49,45,44a4.41,4.41,0,0,0-3.91,0,5.34,5.34,0,0,0-2.84,3.65C37,53.44,40.54,59.86,44.73,63.21c.06,0,6.5,5.21,8.77,8.53.06.07,5.8,7.79,4.61,12.38a3.69,3.69,0,0,1-1.88,2.36l-.39.21-.38-.23a3.55,3.55,0,0,1-1.35-2L54,84.32c-.34-.73-2.18-4.44-4.74-5.59h-.08l-.08-.06A75.27,75.27,0,0,0,38.83,71.9a58.13,58.13,0,0,0-11.76-4.43c-5.89-1.75-11.46-3.4-15.5-7.29L11.36,60,5.8,57.58A72,72,0,0,1,18.37,31.84,103.29,103.29,0,0,0,42.18,25l.2-.09h.21a10.71,10.71,0,0,1,6.47,3.71ZM57.13,30.61l.66-1.36c4,1.07,7.22,2,7.83,2.14a2.84,2.84,0,0,1,1.75,2.19c.12.52.41,1.91.76,3.61l.41,2ZM64.32,57.9c.18.39.32.69.39.8a34.89,34.89,0,0,0,2.88,4.15,40.89,40.89,0,0,0,3,3.31l1.14,1.15-1.61.16a12.53,12.53,0,0,0-9.8,6.78l-.66,1.33L59,74.27a34.42,34.42,0,0,0-2.82-4.45c-2.52-3.67-9.31-9.11-9.39-9.17-3.36-2.69-6.28-8-5.36-12.29A2.15,2.15,0,0,1,42.46,47a1.24,1.24,0,0,1,.53-.12,1.32,1.32,0,0,1,.52.12c.13.07,15,7.06,19.65,9l.17.06c.31.13.62.24.94.34l-.08,1.24Zm1.51,14.64a9.19,9.19,0,0,1,5.49-1.89,9.87,9.87,0,0,1,1.22.08,9.21,9.21,0,0,1-1.18,18.33c-.41,0-.81,0-1.22-.06a9,9,0,0,1-6.06-3.53A9.23,9.23,0,0,1,65.83,72.54Zm9.81,75.24A72.14,72.14,0,0,1,3.5,75.64,73.12,73.12,0,0,1,5,60.82l4.54,1.92.1.09c4.58,4.22,10.64,6,16.54,7.77A55.57,55.57,0,0,1,37.3,74.74a71.44,71.44,0,0,1,10.09,6.69l.23.18.27.09c1,.34,2.47,2.51,3.19,4,1.47,4,4.15,4.3,4.92,4.3a4,4,0,0,0,.49,0l.43-.12a7.77,7.77,0,0,0,3.23-2.49l.61-.84.62.84a12.32,12.32,0,0,0,8.34,4.94,12.78,12.78,0,0,0,1.64.11A12.48,12.48,0,0,0,83.66,81.5,12.66,12.66,0,0,0,82,73.38l-.56-.92,1-.23a3.06,3.06,0,0,0,1-.39c.8-.48,1.69-1.49,1.44-3.59-.67-5.7-8.67-19-12.08-24.52l-.08-.12v-.14c-.3-1.51-1.82-9.13-2.19-10.66a6.09,6.09,0,0,0-3.89-4.54c-.15-.06-1.78-.5-12.37-3.38l-7.37-2a11.87,11.87,0,0,0-4.84-1.33h-.33l-.31.13a101.62,101.62,0,0,1-18.88,6l-.9.19A72.11,72.11,0,0,1,146.09,91.15l-.6.06c-.9.08-2.28.18-3.69.18a20.42,20.42,0,0,1-3.22-.22h-.2a22.28,22.28,0,0,0-9.09-2,16.73,16.73,0,0,0-8.49,2.22l-.22.15s-5.06,3.89-8.5,5.27c-2.45,1-7,2.65-8.8,2.75h-.39c-3,0-12.85.38-15.5,5.19l-.3.55-.6-.18C82.87,104,76.36,102,73.43,101.41c-.45-.17-.9-.3-1.29-.41l-.22-.06a18.43,18.43,0,0,0-5-.78,13.28,13.28,0,0,0-2.74.29c-1.73.37-5.44,2.13-5.22,5a3.68,3.68,0,0,0,1.77,2.75c1.55,1.09,3.21,2,4.88,3l1.23.7a55.81,55.81,0,0,0,7,3.51c1.53.89,9.54,5.39,16.74,6.91.56.23,5.52,2.32,7.7,3.11l.24.08a14.31,14.31,0,0,1,5.18,2.82,10.14,10.14,0,0,0,6.87,2.76,11.31,11.31,0,0,0,7.12-2.76c.76-.64,7.6-6.36,14-9.2.06,0,1.26-.49,2.15-.88A72,72,0,0,1,75.64,147.78ZM136.73,114a39.89,39.89,0,0,0-6.39,2.12c-7.24,3.19-14.69,9.59-14.79,9.67a8.14,8.14,0,0,1-5.08,2,6.79,6.79,0,0,1-4.56-1.86l-.15-.14a17.69,17.69,0,0,0-6.51-3.51c-2.35-.87-7.63-3.09-7.61-3.09l-.39-.13c-7.18-1.42-15.91-6.56-15.94-6.58l-.29-.15A49.32,49.32,0,0,1,68.4,109l-1.26-.71c-1.55-.87-2.93-1.66-4.22-2.53L62,105l1-.63a6.12,6.12,0,0,1,1.86-.84,10.34,10.34,0,0,1,2.08-.21A14.74,14.74,0,0,1,71,104l.23.07a10,10,0,0,1,1.06.34l.42.13c2.54.45,9.9,2.71,13,3.66l.45.14.08.47a7.22,7.22,0,0,0,2.14,4.08c1.65,1.6,4.07,2.4,7.18,2.4a21.44,21.44,0,0,0,2.27-.13q1.5-.24,3-.33c2.45-.15,4.92-.42,7.1-.65l3.18-.34a61.37,61.37,0,0,0,10.67-2,42.42,42.42,0,0,0,6.91-2.64,1.67,1.67,0,0,0,.75-2.19,1.62,1.62,0,0,0-1.47-.93,1.57,1.57,0,0,0-.7.17,38.44,38.44,0,0,1-6.38,2.43,58.61,58.61,0,0,1-10.1,1.91l-2.45.26-.76.08c-2.15.23-4.59.5-6.93.63-1.08.07-2.16.19-3.27.36a15.17,15.17,0,0,1-1.78.1,7.13,7.13,0,0,1-4.9-1.45,3.92,3.92,0,0,1-1.06-1.68l-.08-.23.45-1.45.07-.3c.43-2.86,7.7-4.15,12.72-4.15h.66c2.15-.08,6.67-1.66,9.9-3,3.67-1.48,8.58-5.2,9.22-5.68a13.5,13.5,0,0,1,6.75-1.71,19,19,0,0,1,7.92,1.82l.21.12h.25a22.42,22.42,0,0,0,4.17.33c.85,0,1.67,0,2.39-.07l1-.06A72.09,72.09,0,0,1,136.73,114Z" transform="translate(0 0)"></path>
    <path d="M106.22,73.52l.64.11v2.61a1.63,1.63,0,1,0,3.26,0V73.75l.69-.07a16.45,16.45,0,0,0,3.86-.85A9.93,9.93,0,0,0,120.46,68a6.5,6.5,0,0,0,.17-5.1c-1.59-4.19-5.78-5.59-9.93-6.59l-.58-.14V44.41l.1-.84.84.08h.25c3.46.57,6.73,2.94,7.62,5.57a1.61,1.61,0,0,0,1.54,1.11,1.53,1.53,0,0,0,.52-.08,1.65,1.65,0,0,0,1-2.08c-1.29-3.83-5.48-7-10.2-7.76a5.48,5.48,0,0,0-1-.14l-.68-.08V37.65a1.63,1.63,0,0,0-3.26,0v2.54l-.68.08c-2.58.29-6.12,1.24-8.34,4.09a7.73,7.73,0,0,0,0,9.43c2,2.76,5.23,3.91,8.46,4.76l.57.15V70.27l-.94-.21c-3.79-.86-6.82-3-7.91-5.71a1.61,1.61,0,0,0-1.5-1,1.67,1.67,0,0,0-.62.12,1.62,1.62,0,0,0-.89.89,1.6,1.6,0,0,0,0,1.25C96.64,69.61,100.93,72.65,106.22,73.52Zm4.86-13.76c3.37.92,5.63,2,6.51,4.25a3.23,3.23,0,0,1-.09,2.55,6.75,6.75,0,0,1-3.93,3.18,11.59,11.59,0,0,1-2.59.6l-.86.11,0-11ZM105.89,55c-1.86-.56-4.15-1.42-5.4-3.16a4.47,4.47,0,0,1-.06-5.49A8.48,8.48,0,0,1,106,43.62l.89-.13V55.33Z" transform="translate(0 0)"></path>
  </symbol>
  <!-- workers -->
    <symbol id="workers" xmlns="http://www.w3.org/2000/svg" viewBox="0 0 151.28 151.28" fill="#E7BC0E">
    <defs></defs>
    <title>stat-workers-color</title>
    <path d="M75.64,3.5A72.14,72.14,0,1,1,3.5,75.64h0A72.22,72.22,0,0,1,75.64,3.5m0-3.5a75.64,75.64,0,1,0,75.64,75.64h0A75.66,75.66,0,0,0,75.64,0Z" transform="translate(0)"></path>
    <path d="M114.44,80a25.13,25.13,0,0,0-2.25-6.29c-1.58-2.75-3.64-4-6.48-4s-4.91,1.29-6.49,4A26,26,0,0,0,97,80l-.3,1.15H94.37L94.06,80a25.13,25.13,0,0,0-2.25-6.29c-1.59-2.79-3.59-4-6.47-4s-4.92,1.29-6.49,4A25.58,25.58,0,0,0,76.58,80l-.3,1.15H74L73.7,80a25.53,25.53,0,0,0-2.25-6.29c-1.58-2.75-3.64-4-6.49-4a7,7,0,0,0-6.49,4A25.36,25.36,0,0,0,56.23,80l-.32,1.21H53.63L53.33,80a25.15,25.15,0,0,0-2.26-6.29c-1.57-2.75-3.63-4-6.48-4s-4.91,1.29-6.48,4A26,26,0,0,0,35.84,80l-.33,1.25-2.45-.65.34-1.29a27.43,27.43,0,0,1,2.49-6.85,10.52,10.52,0,0,1,4.88-4.56,6.59,6.59,0,0,1-2.15-4.8,6.26,6.26,0,0,1,6-6.36h0a5.79,5.79,0,0,1,4.17,1.92,6.43,6.43,0,0,1-.19,9.09l-.16.15a10.5,10.5,0,0,1,4.87,4.56,20.82,20.82,0,0,1,1.5,3.38,20,20,0,0,1,1.49-3.38,10.55,10.55,0,0,1,4.87-4.56A6.56,6.56,0,0,1,59,63.14a6,6,0,1,1,11.91,0,6.54,6.54,0,0,1-2.13,4.8,10.45,10.45,0,0,1,4.87,4.56,20,20,0,0,1,1.49,3.39,20.09,20.09,0,0,1,1.5-3.39,10.55,10.55,0,0,1,4.87-4.56,6.62,6.62,0,0,1-2.14-4.81,6.33,6.33,0,0,1,6-6.35,6.25,6.25,0,0,1,6,6.36,6.61,6.61,0,0,1-2.15,4.8A10.45,10.45,0,0,1,94,72.5a18.18,18.18,0,0,1,1.49,3.38A20.87,20.87,0,0,1,97,72.5a10.52,10.52,0,0,1,4.88-4.56,6.62,6.62,0,0,1-2.14-4.81,6.26,6.26,0,0,1,6-6.35,6.33,6.33,0,0,1,6,6.36,6.61,6.61,0,0,1-2.15,4.8,10.45,10.45,0,0,1,4.87,4.56A27.36,27.36,0,0,1,117,79.36l.34,1.28-2.45.66Zm-8.75-20.7c-1.68,0-3.39,1.91-3.39,3.79s1.71,3.8,3.39,3.8,3.39-1.92,3.39-3.8a3.84,3.84,0,0,0-3.39-3.75Zm-20.36,0c-1.68,0-3.39,1.91-3.39,3.79s1.71,3.8,3.39,3.8,3.38-1.92,3.38-3.8a3.86,3.86,0,0,0-3.38-3.75ZM65,59.34c-1.68,0-3.4,1.92-3.4,3.8s1.72,3.79,3.4,3.79,3.38-1.87,3.38-3.79S66.66,59.34,65,59.34Zm-20.38,0c-1.7,0-3.38,1.89-3.38,3.8s1.68,3.79,3.38,3.79S48,65.06,48,63.14a3.88,3.88,0,0,0-3.42-3.8Z" transform="translate(0)"></path>
    <path d="M35.74,80A26.19,26.19,0,0,1,38,73.7c1.6-2.79,3.69-4.09,6.57-4.09s5,1.3,6.57,4.09A25.68,25.68,0,0,1,53.42,80l.28,1.08h2.13l.3-1.13a25.31,25.31,0,0,1,2.25-6.26C60,70.9,62.07,69.6,65,69.6s5,1.3,6.58,4.09A26.27,26.27,0,0,1,73.8,80l.28,1.08H76.2L76.48,80a26.24,26.24,0,0,1,2.28-6.32c1.6-2.79,3.69-4.09,6.58-4.09s4.94,1.26,6.56,4.09A25.77,25.77,0,0,1,94.16,80l.28,1.08h2.13L96.86,80a25.79,25.79,0,0,1,2.27-6.32c1.6-2.79,3.69-4.09,6.58-4.09s5,1.3,6.57,4.09A25.77,25.77,0,0,1,114.54,80l.3,1.16,2.25-.6-.31-1.19a27.63,27.63,0,0,0-2.47-6.83,10.4,10.4,0,0,0-5-4.58,6.5,6.5,0,0,0,2.23-4.83,6.23,6.23,0,0,0-5.86-6.26,6.14,6.14,0,0,0-5.87,6.25A6.49,6.49,0,0,0,102.06,68a10.4,10.4,0,0,0-5,4.58,20.28,20.28,0,0,0-1.59,3.64,20.2,20.2,0,0,0-1.57-3.64A10.32,10.32,0,0,0,89,68a6.5,6.5,0,0,0,2.23-4.83,6.15,6.15,0,0,0-5.85-6.26,6.23,6.23,0,0,0-5.87,6.25A6.47,6.47,0,0,0,81.7,68a10.4,10.4,0,0,0-5,4.58,19.49,19.49,0,0,0-1.59,3.66,19.45,19.45,0,0,0-1.58-3.66,10.27,10.27,0,0,0-5-4.58,6.46,6.46,0,0,0,2.22-4.83,5.87,5.87,0,1,0-11.71,0A6.48,6.48,0,0,0,61.32,68a10.4,10.4,0,0,0-5,4.58,19.55,19.55,0,0,0-1.58,3.64,20.28,20.28,0,0,0-1.59-3.64,10.27,10.27,0,0,0-5-4.58,6.44,6.44,0,0,0,2.23-4.83,6.23,6.23,0,0,0-5.86-6.26h0a6.16,6.16,0,0,0-5.86,6.26A6.48,6.48,0,0,0,41,68a10.31,10.31,0,0,0-5,4.58,27.12,27.12,0,0,0-2.48,6.83l-.3,1.19,2.25.6Zm8.84-20.78c1.76,0,3.48,1.94,3.48,3.9S46.34,67,44.58,67s-3.48-1.92-3.48-3.89a3.93,3.93,0,0,1,3.48-3.87Zm20.38,0c1.75,0,3.48,1.94,3.48,3.9S66.71,67,65,67s-3.5-2-3.5-3.89,1.73-3.87,3.5-3.87Zm20.37,0c1.76,0,3.48,1.93,3.48,3.89S87.06,67,85.33,67s-3.49-2-3.49-3.9,1.76-3.86,3.49-3.86Zm20.36,0c1.76,0,3.49,1.93,3.49,3.89s-1.76,3.9-3.49,3.9-3.49-2-3.49-3.9,1.8-3.87,3.49-3.87Z" transform="translate(0)"></path>
    <path d="M94,55.8a25.53,25.53,0,0,0-2.25-6.29c-1.58-2.76-3.64-4-6.49-4s-4.9,1.28-6.48,4a25.58,25.58,0,0,0-2.27,6.29L76.16,57H73.87l-.3-1.15a25.53,25.53,0,0,0-2.25-6.29c-1.6-2.79-3.59-4-6.47-4s-4.92,1.28-6.5,4a26,26,0,0,0-2.26,6.29l-.33,1.25-2.44-.65.32-1.24a27.44,27.44,0,0,1,2.51-6.9A10.56,10.56,0,0,1,61,43.7a6.63,6.63,0,0,1-2.15-4.81,6.33,6.33,0,0,1,6-6.35h1.47l-.24.16a6.37,6.37,0,0,1,4.69,6.21,6.57,6.57,0,0,1-2.13,4.79,10.57,10.57,0,0,1,4.87,4.57A19.51,19.51,0,0,1,75,51.64a19.51,19.51,0,0,1,1.49-3.37,10.54,10.54,0,0,1,4.88-4.57,6.57,6.57,0,0,1-2.13-4.81,6,6,0,0,1,11.92-1.38,6.37,6.37,0,0,1,0,1.38A6.59,6.59,0,0,1,89,43.7a10.5,10.5,0,0,1,4.87,4.56,27.43,27.43,0,0,1,2.49,6.85l.33,1.29-2.44.65ZM85.22,35.1c-1.68,0-3.39,1.91-3.39,3.79s1.71,3.8,3.39,3.8,3.38-1.92,3.38-3.8S86.93,35.1,85.22,35.1Zm-20.36,0c-1.69,0-3.4,1.91-3.4,3.79s1.71,3.8,3.4,3.8,3.38-1.92,3.38-3.8S66.56,35.1,64.86,35.1Z" transform="translate(0)"></path>
    <path d="M56,55.78a25.82,25.82,0,0,1,2.28-6.32c1.59-2.79,3.69-4.09,6.58-4.09s4.94,1.26,6.56,4.09a25.44,25.44,0,0,1,2.26,6.31L74,56.85h2.13l.28-1.07a26.24,26.24,0,0,1,2.28-6.32c1.6-2.79,3.69-4.09,6.57-4.09s5,1.3,6.58,4.09a25.44,25.44,0,0,1,2.26,6.31l.3,1.16,2.25-.6-.31-1.19a27.26,27.26,0,0,0-2.48-6.83,10.27,10.27,0,0,0-5-4.58,6.49,6.49,0,0,0,2.22-4.83,5.87,5.87,0,1,0-11.72-.68c0,.22,0,.45,0,.68a6.49,6.49,0,0,0,2.21,4.85,10.27,10.27,0,0,0-5,4.58A19.78,19.78,0,0,0,75,52a21,21,0,0,0-1.58-3.64,10.22,10.22,0,0,0-5-4.58A6.46,6.46,0,0,0,70.64,39a6.23,6.23,0,0,0-4.85-6.16l.16-.11H64.86A6.23,6.23,0,0,0,59,38.89a6.51,6.51,0,0,0,2.23,4.84,10.4,10.4,0,0,0-5,4.58,27.16,27.16,0,0,0-2.51,6.88l-.29,1.14,2.24.6ZM64.86,35c1.75,0,3.48,1.93,3.48,3.89s-1.76,3.9-3.48,3.9-3.5-2-3.5-3.9S63.13,35,64.86,35ZM88.7,38.89c0,1.93-1.76,3.9-3.48,3.9s-3.49-2-3.49-3.9S83.49,35,85.22,35,88.7,36.93,88.7,38.89Z" transform="translate(0)"></path>
    <path d="M134.92,104.28A25.46,25.46,0,0,0,132.67,98c-1.58-2.75-3.64-4-6.48-4s-4.91,1.29-6.49,4a26,26,0,0,0-2.27,6.29l-.3,1.16h-2.28l-.31-1.16A25.13,25.13,0,0,0,112.29,98c-1.59-2.79-3.59-4-6.47-4s-4.92,1.29-6.49,4a25.58,25.58,0,0,0-2.27,6.29l-.3,1.16H94.48l-.3-1.17A26,26,0,0,0,91.93,98c-1.58-2.75-3.64-4-6.48-4A6.89,6.89,0,0,0,79,98a26,26,0,0,0-2.27,6.29l-.3,1.16H74.1l-.3-1.16A25.53,25.53,0,0,0,71.55,98C70,95.2,68,94,65.08,94s-4.92,1.29-6.5,4a26,26,0,0,0-2.26,6.29L56,105.44H53.74l-.3-1.16A26,26,0,0,0,51.19,98c-1.59-2.75-3.65-4-6.49-4s-4.92,1.29-6.5,4a25.45,25.45,0,0,0-2.2,6.22l-.32,1.22H33.36l-.3-1.16A25.06,25.06,0,0,0,30.81,98c-1.57-2.75-3.63-4-6.48-4s-4.91,1.29-6.49,4a26,26,0,0,0-2.26,6.29l-.33,1.26-2.45-.66.34-1.29a27.36,27.36,0,0,1,2.49-6.84,10.52,10.52,0,0,1,4.88-4.56,6.59,6.59,0,0,1-2.15-4.8A6.28,6.28,0,0,1,24.21,81h.08a6.33,6.33,0,0,1,6,6.36,6.58,6.58,0,0,1-2.14,4.79A10.47,10.47,0,0,1,33,96.74a20.82,20.82,0,0,1,1.5,3.38A19.23,19.23,0,0,1,36,96.74a10.5,10.5,0,0,1,4.87-4.56,6.57,6.57,0,0,1-2.13-4.79,6.25,6.25,0,0,1,6-6.36,6.25,6.25,0,0,1,6,6.36,6.61,6.61,0,0,1-2.13,4.79,10.5,10.5,0,0,1,4.87,4.56A20,20,0,0,1,55,100.13a19,19,0,0,1,1.5-3.39,10.45,10.45,0,0,1,4.87-4.56,6.57,6.57,0,0,1-2.14-4.81,6.32,6.32,0,0,1,6-6.34A6.24,6.24,0,0,1,71,87.39a6.58,6.58,0,0,1-2.14,4.79,10.57,10.57,0,0,1,4.87,4.57,18.77,18.77,0,0,1,1.49,3.37,20.72,20.72,0,0,1,1.5-3.37,10.48,10.48,0,0,1,4.87-4.57,6.57,6.57,0,0,1-2.13-4.81,6.24,6.24,0,0,1,6-6.34,6.33,6.33,0,0,1,6,6.36,6.58,6.58,0,0,1-2.14,4.79,10.57,10.57,0,0,1,4.87,4.57,20,20,0,0,1,1.49,3.38,19,19,0,0,1,1.5-3.39A10.59,10.59,0,0,1,102,92.18a6.62,6.62,0,0,1-2.14-4.81,6.32,6.32,0,0,1,6-6.34,6.24,6.24,0,0,1,6,6.36,6.63,6.63,0,0,1-2.15,4.79,10.48,10.48,0,0,1,4.87,4.57,19.55,19.55,0,0,1,1.5,3.37,19.51,19.51,0,0,1,1.49-3.37,10.62,10.62,0,0,1,4.87-4.57,6.65,6.65,0,0,1-2.13-4.81,6.24,6.24,0,0,1,6-6.34,6.33,6.33,0,0,1,6,6.36A6.57,6.57,0,0,1,130,92.18a10.57,10.57,0,0,1,4.87,4.57,27.4,27.4,0,0,1,2.48,6.85l.34,1.28-2.43.66Zm-8.74-20.69c-1.68,0-3.4,1.91-3.4,3.79s1.72,3.8,3.4,3.8,3.38-1.92,3.38-3.8S127.88,83.59,126.18,83.59Zm-20.37,0c-1.68,0-3.39,1.91-3.39,3.79s1.71,3.8,3.39,3.8,3.38-1.92,3.38-3.8S107.52,83.59,105.81,83.59Zm-20.37,0c-1.68,0-3.4,1.91-3.4,3.79s1.72,3.8,3.4,3.8,3.38-1.92,3.38-3.8S87.14,83.59,85.44,83.59Zm-20.37,0c-1.68,0-3.39,1.91-3.39,3.79s1.71,3.8,3.39,3.8,3.39-1.92,3.39-3.8S66.78,83.59,65.07,83.59Zm-20.37,0c-1.68,0-3.39,1.92-3.39,3.8S43,91.18,44.7,91.18s3.38-1.88,3.38-3.79-1.67-3.8-3.38-3.8Zm-20.37,0c-1.71,0-3.39,1.88-3.39,3.8a3.85,3.85,0,0,0,3.39,3.79c1.71,0,3.38-1.88,3.38-3.79s-1.71-3.8-3.38-3.8Z" transform="translate(0)"></path>
    <path d="M137.25,103.63a27.12,27.12,0,0,0-2.48-6.83,10.29,10.29,0,0,0-5-4.59A6.43,6.43,0,0,0,132,87.39a6.23,6.23,0,0,0-5.86-6.26,6.16,6.16,0,0,0-5.87,6.24,6.46,6.46,0,0,0,2.22,4.84,10.29,10.29,0,0,0-5,4.59,19.88,19.88,0,0,0-1.59,3.63,19.8,19.8,0,0,0-1.57-3.63,10.29,10.29,0,0,0-5-4.59,6.48,6.48,0,0,0,2.23-4.82,6.14,6.14,0,0,0-5.85-6.26,6.22,6.22,0,0,0-5.87,6.24,6.47,6.47,0,0,0,2.23,4.84,10.4,10.4,0,0,0-5,4.58,19.49,19.49,0,0,0-1.59,3.66A19.26,19.26,0,0,0,94,96.8a10.29,10.29,0,0,0-5-4.59,6.48,6.48,0,0,0,2.23-4.82,6.23,6.23,0,0,0-5.87-6.26,6.15,6.15,0,0,0-5.86,6.24,6.46,6.46,0,0,0,2.22,4.84,10.29,10.29,0,0,0-5,4.59,19.88,19.88,0,0,0-1.59,3.63,19.18,19.18,0,0,0-1.58-3.63,10.29,10.29,0,0,0-5-4.59,6.43,6.43,0,0,0,2.23-4.82,6.13,6.13,0,0,0-5.84-6.26,6.22,6.22,0,0,0-5.87,6.24,6.46,6.46,0,0,0,2.22,4.84,10.4,10.4,0,0,0-5,4.58,19.45,19.45,0,0,0-1.58,3.66,19.45,19.45,0,0,0-1.58-3.66,10.27,10.27,0,0,0-5-4.58,6.46,6.46,0,0,0,2.22-4.82,6.14,6.14,0,0,0-5.85-6.26,6.14,6.14,0,0,0-5.86,6.26A6.46,6.46,0,0,0,41,92.21a10.4,10.4,0,0,0-5,4.58,20.2,20.2,0,0,0-1.57,3.64,20.28,20.28,0,0,0-1.59-3.64,10.27,10.27,0,0,0-5-4.58,6.43,6.43,0,0,0,2.23-4.82,6.23,6.23,0,0,0-5.87-6.26h0a6.16,6.16,0,0,0-5.83,6.26,6.5,6.5,0,0,0,2.23,4.83,10.4,10.4,0,0,0-5,4.58,27.19,27.19,0,0,0-2.48,6.82l-.31,1.19,2.26.6.3-1.15a25.82,25.82,0,0,1,2.28-6.32c1.6-2.79,3.68-4.09,6.57-4.09s5,1.3,6.57,4.09a25.36,25.36,0,0,1,2.26,6.32l.28,1.08h2.13l.3-1.14A25.31,25.31,0,0,1,38,97.94c1.59-2.79,3.69-4.09,6.58-4.09s5,1.3,6.57,4.09a25.36,25.36,0,0,1,2.26,6.32l.29,1.08h2.12l.28-1.08a25.82,25.82,0,0,1,2.28-6.32C60,95.15,62.08,93.85,65,93.85s4.94,1.27,6.56,4.09a25.36,25.36,0,0,1,2.26,6.32l.28,1.08H76.2l.29-1.08a25.79,25.79,0,0,1,2.27-6.32c1.6-2.79,3.69-4.09,6.57-4.09s5,1.3,6.58,4.09a26,26,0,0,1,2.26,6.3l.28,1.1h2.12l.28-1.08a26.24,26.24,0,0,1,2.28-6.32c1.6-2.79,3.69-4.09,6.58-4.09s4.94,1.27,6.56,4.09a25.36,25.36,0,0,1,2.26,6.32l.28,1.08h2.13l.29-1.08a25.79,25.79,0,0,1,2.27-6.32c1.6-2.79,3.69-4.09,6.58-4.09s5,1.3,6.57,4.09a25.36,25.36,0,0,1,2.26,6.32l.3,1.15,2.24-.6ZM122.68,87.38c0-1.93,1.77-3.89,3.5-3.89s3.48,1.92,3.48,3.89-1.76,3.9-3.48,3.9S122.68,89.31,122.68,87.38Zm-20.36,0c0-1.93,1.76-3.89,3.49-3.89s3.48,1.92,3.48,3.89-1.75,3.9-3.48,3.9S102.32,89.31,102.32,87.38ZM82,87.38c0-1.93,1.76-3.89,3.49-3.89S89,85.41,89,87.38s-1.76,3.9-3.48,3.9S82,89.31,82,87.38Zm-20.37,0c0-1.93,1.76-3.89,3.49-3.89s3.49,1.92,3.49,3.89-1.76,3.9-3.49,3.9-3.54-2-3.54-3.9Zm-20.37,0c0-1.93,1.76-3.9,3.49-3.9s3.48,1.93,3.48,3.9-1.72,3.89-3.48,3.89a4,4,0,0,1-3.54-3.88Zm-20.37,0a3.94,3.94,0,0,1,3.49-3.9c1.76,0,3.48,1.93,3.48,3.9s-1.73,3.89-3.48,3.89a4,4,0,0,1-3.54-3.88Z" transform="translate(0)"></path>
  </symbol>
</svg>

